<svg id="Group_2" data-name="Group 2" xmlns="http://www.w3.org/2000/svg" viewBox="1399 51 742 742">
  <defs>
    <style>
      .cls-1 {
        fill: #6298d1;
      }

      .cls-2 {
        fill: #fff;
      }

      .cls-3 {
        fill: #fefefe;
      }
    </style>
  </defs>
  <rect id="Rectangle_1" data-name="Rectangle 1" class="cls-1" width="742" height="742" transform="translate(1399 51)"/>
  <g id="Group_1" data-name="Group 1" transform="translate(1471.118 114.953)">
    <path id="Path_1" data-name="Path 1" class="cls-2" d="M596.8,281.4a6.139,6.139,0,0,1,.3,2.6c0,17.3.1,34.6.1,51.8v77.3q0,41.85.1,83.7c0,8.4,0,16.8.3,25.3-.2,2.7-.6,2.9-2.1,3.5-5.9,1.8-11.8,3.5-17.7,5.3q-72.75,21.45-145.4,42.9-51.6,15.3-103.2,30.5c-10.5,3.1-21,6.6-31.6,9.4-.8.2-1.7.4-2.8.6v-4c-.1-20.6-.2-41.1-.3-61.7-.1-18.2-.1-36.5-.1-54.7-.1-29.4-.3-58.9-.4-88.3-.1-11-.1-21.9-.2-32.9,0-1-.1-1.7,1.3-2.1,16.5-4.4,32.8-9.5,49.2-14.3,50.6-14.9,101.2-30,151.8-44.9,29.2-8.6,58.4-17.3,87.6-25.9C588,284.3,592.3,282.8,596.8,281.4Z"/>
    <path id="Path_2" data-name="Path 2" class="cls-2" d="M0,95.2a13.761,13.761,0,0,1,3.9,1.2q123.15,47.4,246.4,94.8c10.4,4,20.8,8,31.3,12a2.3,2.3,0,0,1,1.8,2.5c-.1,6.6,0,13.1,0,19.7,0,13.4,0,26.9.1,40.3v11.8a3.623,3.623,0,0,1-2.3-.6Q226,255.6,170.7,234.3c-36.3-14-72.7-27.8-109-41.7a30.865,30.865,0,0,0-4.3-1.4c-4.7-1-8.3,1.5-8.8,6.3-.2,2.5-.2,5.1-.2,7.7,0,13.6.1,27.2.1,40.8v30a16.059,16.059,0,0,0,.1,3.4c0,.2.4.5.9.8,12.8,5.6,25,10.7,37.9,15.8q81.6,31.5,163.4,62.8c9.9,3.8,19.6,8.1,29.7,11.3,3.5,1.1,3,.3,3,4,.1,11,.1,22.1.2,33.1,0,15.5,0,31,.1,46.6.3,36.4.3,72.8.4,109.2,0,11,.1,21.9.1,32.9v18.3c-.9.3-1.7-.3-2.4-.6-23.1-8.9-46.3-17.8-69.4-26.7q-93.75-36-187.6-72c-6.2-2.4-12.1-5.3-18.4-7.3-1.8-.6-3.6-1.2-5.5-1.7-.7-.2-1.1-.5-1.1-1.3V431.4a2.219,2.219,0,0,1,.9.1c9.8,4.6,20,7.8,30.1,11.7l95.7,36.9q46.8,18,93.7,36.1a16.6,16.6,0,0,0,6.9,1.6,7.332,7.332,0,0,0,7-4.9,13.46,13.46,0,0,0,.9-5.6c0-4.8-.1-9.6-.1-14.4,0-17.4.1-34.7.1-52.1,0-1.4,0-2.9-.1-4.3-.7-5.3-3.7-8.9-8.6-10.9-4.4-1.8-8.8-3.4-13.2-5.1L131.3,389c-4.8-1.8-9.6-3.5-14.5-4.8a4.939,4.939,0,0,1-1.6-.5c-10-5-20.6-8.5-31-12.6Q46.55,356.4,8.7,342.3c-2.5-.9-4.9-1.8-7.5-2.6a1.5,1.5,0,0,1-1.3-1.9,6.533,6.533,0,0,0,0-1.4V98.1A26.219,26.219,0,0,0,0,95.2Z"/>
    <path id="Path_3" data-name="Path 3" class="cls-2" d="M10.8,88.1c4.8-1.4,9-2.7,13.3-4q92.85-27.45,185.6-54.9c31.6-9.3,63.1-18.9,94.6-28.5a9.08,9.08,0,0,1,4-.6,2.537,2.537,0,0,1,1.2.2c6.2,3,12.7,5.1,19.1,7.5q127.35,49.05,254.6,98a4.383,4.383,0,0,1,2.2,1.2c-6.2,1.8-12.3,3.6-18.4,5.4q-75.45,22.35-150.9,44.8L290.7,194.4a5.808,5.808,0,0,1-3.9-.1Q182.4,154.1,77.9,113.9c-21.7-8.4-43.5-16.7-65.2-25.1A9.268,9.268,0,0,1,10.8,88.1Z"/>
    <path id="Path_4" data-name="Path 4" class="cls-2" d="M585.6,274.5c-4.8,1.5-9.6,3-14.4,4.4-43.7,12.6-87.2,25.8-130.8,38.7q-72.3,21.3-144.5,42.7l-1.2.3a17.2,17.2,0,0,1-11.2-.2c-9.1-3.1-18-6.8-27-10.3q-33.75-13.05-67.4-25.9L71.8,278.9l-1.5-.6c.1-.8.8-.7,1.2-.8,27.4-8.1,54.7-16.3,82.1-24.4,5.7-1.7,11.4-3.6,17.2-4.9a3.139,3.139,0,0,0,1.6-.6c1.8-1.5,3.5-.8,5.3,0q51,19.8,102.2,39.5c.9.3,1.8.7,2.7,1,.4.1,1.6.7,3.2,1.3a9.955,9.955,0,0,0,5.5.4c7.8-2.2,8.7-3.1,15.6-5.1,42-12.5,84.1-25.1,126.1-37.4,11.3-3.3,22.5-7.2,33.9-10.2,3.9-1,7.7-1.9,11.6-2.8a6.643,6.643,0,0,1,4.4.3c15.2,5.9,30.5,11.8,45.7,17.7,18.2,7,36.4,14.1,54.6,21.1A4.06,4.06,0,0,1,585.6,274.5Z"/>
    <path id="Path_5" data-name="Path 5" class="cls-2" d="M596.9,114.2v52.3c0,6.2.1,12.3.2,18.5.1,3.1,0,3.3-3,4.2-14.2,4.2-28.5,8.4-42.7,12.6-21.2,6.3-42.3,12.6-63.5,18.8-3,.9-6.2,1.5-9,3.1-1.5.8-3.4.9-5.1,1.2-12.8,2.9-25.2,7-37.7,10.8-19.9,6-39.8,11.8-59.6,17.7-26.8,7.9-53.5,15.9-80.3,23.9-.8.2-1.5.4-2.3.6-.7-.7-.4-1.6-.4-2.3-.1-11.7-.1-23.4-.1-35V206.5c0-2.5,0-2.5,2.4-3.2q52.8-15.6,105.7-31.3,64.5-19.05,128.9-38.2c21.6-6.4,43.3-12.8,64.9-19.3C595.8,114.4,596.2,114.3,596.9,114.2Z"/>
    <path id="Path_6" data-name="Path 6" class="cls-2" d="M225.3,507c-71.2-27.3-142-54.9-213.3-82,4.4-1.3,8.4-2.5,12.5-3.8,19.5-5.9,38.9-11.8,58.4-17.7,7.9-2.4,16-4.2,23.9-7,2.1-.8,4.2-1.5,6.2-2.4a3.89,3.89,0,0,1,3-.1c7.3,2.1,14.3,5,21.4,7.7,15.9,6.2,31.9,12.2,47.8,18.3,12.1,4.6,24.1,9.3,36.2,13.9.5.2,1,.4,1.6.6a3.828,3.828,0,0,1,2.6,3.9c-.1,3.5,0,7,0,10.6v56.4C225.3,505.8,225.3,506.2,225.3,507Z"/>
    <path id="Path_7" data-name="Path 7" class="cls-3" d="M58.7,270.8V202q50.4,19.35,100.6,38.5v.4C125.9,250.8,92.5,260.7,58.7,270.8Z"/>
  </g>
</svg>
